<svg width="64" height="53" viewBox="0 0 64 53" fill="none" xmlns="http://www.w3.org/2000/svg">
<path fill-rule="evenodd" clip-rule="evenodd" d="M0.531765 15.237C0 16.1647 0 17.4082 0 19.8952V46.8497C0 49.6892 0 51.109 0.882125 51.9911C1.76425 52.8732 3.18401 52.8732 6.02353 52.8732H57.9765C60.816 52.8732 62.2358 52.8732 63.1179 51.9911C64 51.109 64 49.6892 64 46.8497V19.8952C64 17.4082 64 16.1647 63.4682 15.237C63.1135 14.6181 62.6002 14.1048 61.9813 13.7501C61.0536 13.2183 59.8101 13.2183 57.3231 13.2183C55.78 13.2183 55.0085 13.2183 54.3298 12.9652C53.8728 12.7948 53.4507 12.5426 53.0841 12.2209C52.5397 11.7431 52.1742 11.0636 51.4431 9.70471L47.3591 2.11319C46.8051 1.08342 46.5281 0.568543 46.0524 0.284272C45.5766 0 44.992 0 43.8226 0H20.1774C19.008 0 18.4234 0 17.9476 0.284272C17.4719 0.568542 17.1949 1.08342 16.6409 2.11317L16.6409 2.11318L12.5569 9.7047C11.8258 11.0636 11.4603 11.7431 10.9159 12.2209C10.5493 12.5426 10.1272 12.7948 9.67022 12.9652C8.99148 13.2183 8.21995 13.2183 6.67689 13.2183C4.18989 13.2183 2.94638 13.2183 2.01868 13.7501C1.39977 14.1048 0.88653 14.6181 0.531765 15.237ZM44.2144 29.7412C44.2144 35.7966 38.8868 40.9516 32 40.9516C25.1132 40.9516 19.7856 35.7966 19.7856 29.7412C19.7856 23.6857 25.1132 18.5307 32 18.5307C38.8868 18.5307 44.2144 23.6857 44.2144 29.7412ZM46.2222 29.7412C46.2222 37.0414 39.8547 42.9595 32 42.9595C24.1453 42.9595 17.7778 37.0414 17.7778 29.7412C17.7778 22.4409 24.1453 16.5229 32 16.5229C39.8547 16.5229 46.2222 22.4409 46.2222 29.7412Z" fill="white"/>
</svg>
