<svg width="43" height="36" viewBox="0 0 43 36" fill="none" xmlns="http://www.w3.org/2000/svg">
<path fill-rule="evenodd" clip-rule="evenodd" d="M0 4.36719C0 1.95526 1.95526 0 4.36719 0H38.6328C41.0448 0 43 1.95526 43 4.36719V31.2422C43 33.6542 41.0448 35.6094 38.6328 35.6094H4.36719C1.95526 35.6094 0 33.6542 0 31.2422V4.36719ZM4.36719 2.01563C3.06846 2.01563 2.01563 3.06846 2.01563 4.36719V31.2422C2.01563 32.541 3.06846 33.5938 4.36719 33.5938H38.6328C39.9316 33.5938 40.9844 32.541 40.9844 31.2422V4.36719C40.9844 3.06846 39.9316 2.01563 38.6328 2.01563H4.36719Z" fill="white"/>
<ellipse cx="10.0781" cy="9.40626" rx="4.36719" ry="4.36719" fill="white"/>
<path d="M5.7109 27.8828V25.8911C5.7109 25.4456 5.88787 25.0184 6.20287 24.7034L11.6331 19.2731C12.2671 18.6391 13.2873 18.6149 13.9507 19.218L15.2924 20.4377C15.9491 21.0347 16.9569 21.0178 17.5932 20.3992L27.3672 10.8967C28.0257 10.2565 29.0763 10.2639 29.7258 10.9133L37.469 18.6565C37.784 18.9715 37.9609 19.3987 37.9609 19.8442V27.8828C37.9609 28.8105 37.2089 29.5625 36.2813 29.5625H7.39059C6.46292 29.5625 5.7109 28.8105 5.7109 27.8828Z" fill="white"/>
</svg>
